# Wavefront OBJ file automatically generated by Tiled2Unity

# Vertices (Count = 117)
v 0 -16 0
v -16 -16 0
v -16 0 0
v 0 0 0
v -32 -16 0
v -32 0 0
v -48 -16 0
v -48 0 0
v -64 -16 0
v -64 0 0
v -80 -16 0
v -80 0 0
v -96 -16 0
v -96 0 0
v -112 -16 0
v -112 0 0
v -128 -16 0
v -128 0 0
v -144 -16 0
v -144 0 0
v -160 -16 0
v -160 0 0
v -176 -16 0
v -176 0 0
v -192 -16 0
v -192 0 0
v 0 -32 0
v -16 -32 0
v -32 -32 0
v -48 -32 0
v -64 -32 0
v -80 -32 0
v -96 -32 0
v -112 -32 0
v -128 -32 0
v -144 -32 0
v -160 -32 0
v -176 -32 0
v -192 -32 0
v 0 -48 0
v -16 -48 0
v -32 -48 0
v -48 -48 0
v -64 -48 0
v -80 -48 0
v -96 -48 0
v -112 -48 0
v -128 -48 0
v -144 -48 0
v -160 -48 0
v -176 -48 0
v -192 -48 0
v 0 -64 0
v -16 -64 0
v -32 -64 0
v -48 -64 0
v -64 -64 0
v -80 -64 0
v -96 -64 0
v -112 -64 0
v -128 -64 0
v -144 -64 0
v -160 -64 0
v -176 -64 0
v -192 -64 0
v 0 -80 0
v -16 -80 0
v -32 -80 0
v -48 -80 0
v -64 -80 0
v -80 -80 0
v -96 -80 0
v -112 -80 0
v -128 -80 0
v -144 -80 0
v -160 -80 0
v -176 -80 0
v -192 -80 0
v 0 -96 0
v -16 -96 0
v -32 -96 0
v -48 -96 0
v -64 -96 0
v -80 -96 0
v -96 -96 0
v -112 -96 0
v -128 -96 0
v -144 -96 0
v -160 -96 0
v -176 -96 0
v -192 -96 0
v 0 -112 0
v -16 -112 0
v -32 -112 0
v -48 -112 0
v -64 -112 0
v -80 -112 0
v -112 -112 0
v -128 -112 0
v -144 -112 0
v -160 -112 0
v -176 -112 0
v -192 -112 0
v 0 -128 0
v -16 -128 0
v -32 -128 0
v -48 -128 0
v -64 -128 0
v -80 -128 0
v -112 -128 0
v -128 -128 0
v -144 -128 0
v -160 -128 0
v -176 -128 0
v -192 -128 0
v -96 -112 0
v -96 -128 0

# Texture cooridinates (Count = 160)
vt 0.3751221 0.9376221
vt 0.4061279 0.9376221
vt 0.4061279 0.9998779
vt 0.3751221 0.9998779
vt 0.4376221 0.9376221
vt 0.4686279 0.9376221
vt 0.4686279 0.9998779
vt 0.4376221 0.9998779
vt 0.4063721 0.9376221
vt 0.4373779 0.9376221
vt 0.4373779 0.9998779
vt 0.4063721 0.9998779
vt 0.4688721 0.9376221
vt 0.4998779 0.9376221
vt 0.4998779 0.9998779
vt 0.4688721 0.9998779
vt 0.3751221 0.8751221
vt 0.4061279 0.8751221
vt 0.4061279 0.9373779
vt 0.3751221 0.9373779
vt 0.4376221 0.8751221
vt 0.4686279 0.8751221
vt 0.4686279 0.9373779
vt 0.4376221 0.9373779
vt 0.4063721 0.8751221
vt 0.4373779 0.8751221
vt 0.4373779 0.9373779
vt 0.4063721 0.9373779
vt 0.4688721 0.8751221
vt 0.4998779 0.8751221
vt 0.4998779 0.9373779
vt 0.4688721 0.9373779
vt 0.3751221 0.8126221
vt 0.4061279 0.8126221
vt 0.4061279 0.8748779
vt 0.3751221 0.8748779
vt 0.4376221 0.8126221
vt 0.4686279 0.8126221
vt 0.4686279 0.8748779
vt 0.4376221 0.8748779
vt 0.4063721 0.8126221
vt 0.4373779 0.8126221
vt 0.4373779 0.8748779
vt 0.4063721 0.8748779
vt 0.4688721 0.8126221
vt 0.4998779 0.8126221
vt 0.4998779 0.8748779
vt 0.4688721 0.8748779
vt 0.3751221 0.7501221
vt 0.4061279 0.7501221
vt 0.4061279 0.8123779
vt 0.3751221 0.8123779
vt 0.4376221 0.7501221
vt 0.4686279 0.7501221
vt 0.4686279 0.8123779
vt 0.4376221 0.8123779
vt 0.4063721 0.7501221
vt 0.4373779 0.7501221
vt 0.4373779 0.8123779
vt 0.4063721 0.8123779
vt 0.4688721 0.7501221
vt 0.4998779 0.7501221
vt 0.4998779 0.8123779
vt 0.4688721 0.8123779
vt 0.3751221 0.6876221
vt 0.4061279 0.6876221
vt 0.4061279 0.7498779
vt 0.3751221 0.7498779
vt 0.4376221 0.6876221
vt 0.4686279 0.6876221
vt 0.4686279 0.7498779
vt 0.4376221 0.7498779
vt 0.4063721 0.6876221
vt 0.4373779 0.6876221
vt 0.4373779 0.7498779
vt 0.4063721 0.7498779
vt 0.4688721 0.6876221
vt 0.4998779 0.6876221
vt 0.4998779 0.7498779
vt 0.4688721 0.7498779
vt 0.3751221 0.6251221
vt 0.4061279 0.6251221
vt 0.4061279 0.6873779
vt 0.3751221 0.6873779
vt 0.4376221 0.6251221
vt 0.4686279 0.6251221
vt 0.4686279 0.6873779
vt 0.4376221 0.6873779
vt 0.4063721 0.6251221
vt 0.4373779 0.6251221
vt 0.4373779 0.6873779
vt 0.4063721 0.6873779
vt 0.4688721 0.6251221
vt 0.4998779 0.6251221
vt 0.4998779 0.6873779
vt 0.4688721 0.6873779
vt 0.3751221 0.5626221
vt 0.4061279 0.5626221
vt 0.4061279 0.6248779
vt 0.3751221 0.6248779
vt 0.4376221 0.5626221
vt 0.4686279 0.5626221
vt 0.4686279 0.6248779
vt 0.4376221 0.6248779
vt 0.4063721 0.5626221
vt 0.4373779 0.5626221
vt 0.4373779 0.6248779
vt 0.4063721 0.6248779
vt 0.4688721 0.5626221
vt 0.4998779 0.5626221
vt 0.4998779 0.6248779
vt 0.4688721 0.6248779
vt 0.3751221 0.5001221
vt 0.4061279 0.5001221
vt 0.4061279 0.5623779
vt 0.3751221 0.5623779
vt 0.4376221 0.5001221
vt 0.4686279 0.5001221
vt 0.4686279 0.5623779
vt 0.4376221 0.5623779
vt 0.4063721 0.5001221
vt 0.4373779 0.5001221
vt 0.4373779 0.5623779
vt 0.4063721 0.5623779
vt 0.4688721 0.5001221
vt 0.4998779 0.5001221
vt 0.4998779 0.5623779
vt 0.4688721 0.5623779
vt 0.7501221 0.4688721
vt 0.7811279 0.4688721
vt 0.7811279 0.4998779
vt 0.7501221 0.4998779
vt 0.7813721 0.4688721
vt 0.8123779 0.4688721
vt 0.8123779 0.4998779
vt 0.7813721 0.4998779
vt 0.7501221 0.4376221
vt 0.7811279 0.4376221
vt 0.7811279 0.4686279
vt 0.7501221 0.4686279
vt 0.7813721 0.4376221
vt 0.8123779 0.4376221
vt 0.8123779 0.4686279
vt 0.7813721 0.4686279
vt 0.0001220703 0.8126221
vt 0.03112793 0.8126221
vt 0.03112793 0.8436279
vt 0.0001220703 0.8436279
vt 0.03137207 0.8126221
vt 0.06237793 0.8126221
vt 0.06237793 0.8436279
vt 0.03137207 0.8436279
vt 0.0001220703 0.7813721
vt 0.03112793 0.7813721
vt 0.03112793 0.8123779
vt 0.0001220703 0.8123779
vt 0.03137207 0.7813721
vt 0.06237793 0.7813721
vt 0.06237793 0.8123779
vt 0.03137207 0.8123779

# Normal
vn 0 0 -1

# Groups (Count = 2)

g mesh_0001
f 1/1/1 2/2/1 3/3/1 4/4/1
f 2/5/1 5/6/1 6/7/1 3/8/1
f 5/9/1 7/10/1 8/11/1 6/12/1
f 7/5/1 9/6/1 10/7/1 8/8/1
f 9/9/1 11/10/1 12/11/1 10/12/1
f 11/5/1 13/6/1 14/7/1 12/8/1
f 13/9/1 15/10/1 16/11/1 14/12/1
f 15/9/1 17/10/1 18/11/1 16/12/1
f 17/5/1 19/6/1 20/7/1 18/8/1
f 19/9/1 21/10/1 22/11/1 20/12/1
f 21/5/1 23/6/1 24/7/1 22/8/1
f 23/13/1 25/14/1 26/15/1 24/16/1
f 27/17/1 28/18/1 2/19/1 1/20/1
f 28/21/1 29/22/1 5/23/1 2/24/1
f 29/25/1 30/26/1 7/27/1 5/28/1
f 30/21/1 31/22/1 9/23/1 7/24/1
f 31/25/1 32/26/1 11/27/1 9/28/1
f 32/21/1 33/22/1 13/23/1 11/24/1
f 33/25/1 34/26/1 15/27/1 13/28/1
f 34/25/1 35/26/1 17/27/1 15/28/1
f 35/21/1 36/22/1 19/23/1 17/24/1
f 36/25/1 37/26/1 21/27/1 19/28/1
f 37/21/1 38/22/1 23/23/1 21/24/1
f 38/29/1 39/30/1 25/31/1 23/32/1
f 40/33/1 41/34/1 28/35/1 27/36/1
f 41/37/1 42/38/1 29/39/1 28/40/1
f 42/41/1 43/42/1 30/43/1 29/44/1
f 43/37/1 44/38/1 31/39/1 30/40/1
f 44/41/1 45/42/1 32/43/1 31/44/1
f 45/37/1 46/38/1 33/39/1 32/40/1
f 46/41/1 47/42/1 34/43/1 33/44/1
f 47/41/1 48/42/1 35/43/1 34/44/1
f 48/37/1 49/38/1 36/39/1 35/40/1
f 49/41/1 50/42/1 37/43/1 36/44/1
f 50/37/1 51/38/1 38/39/1 37/40/1
f 51/45/1 52/46/1 39/47/1 38/48/1
f 53/49/1 54/50/1 41/51/1 40/52/1
f 54/53/1 55/54/1 42/55/1 41/56/1
f 55/57/1 56/58/1 43/59/1 42/60/1
f 56/53/1 57/54/1 44/55/1 43/56/1
f 57/57/1 58/58/1 45/59/1 44/60/1
f 58/53/1 59/54/1 46/55/1 45/56/1
f 59/57/1 60/58/1 47/59/1 46/60/1
f 60/57/1 61/58/1 48/59/1 47/60/1
f 61/53/1 62/54/1 49/55/1 48/56/1
f 62/57/1 63/58/1 50/59/1 49/60/1
f 63/53/1 64/54/1 51/55/1 50/56/1
f 64/61/1 65/62/1 52/63/1 51/64/1
f 66/65/1 67/66/1 54/67/1 53/68/1
f 67/69/1 68/70/1 55/71/1 54/72/1
f 68/69/1 69/70/1 56/71/1 55/72/1
f 69/73/1 70/74/1 57/75/1 56/76/1
f 70/69/1 71/70/1 58/71/1 57/72/1
f 71/73/1 72/74/1 59/75/1 58/76/1
f 72/69/1 73/70/1 60/71/1 59/72/1
f 73/73/1 74/74/1 61/75/1 60/76/1
f 74/69/1 75/70/1 62/71/1 61/72/1
f 75/73/1 76/74/1 63/75/1 62/76/1
f 76/69/1 77/70/1 64/71/1 63/72/1
f 77/77/1 78/78/1 65/79/1 64/80/1
f 79/81/1 80/82/1 67/83/1 66/84/1
f 80/85/1 81/86/1 68/87/1 67/88/1
f 81/85/1 82/86/1 69/87/1 68/88/1
f 82/89/1 83/90/1 70/91/1 69/92/1
f 83/85/1 84/86/1 71/87/1 70/88/1
f 84/89/1 85/90/1 72/91/1 71/92/1
f 85/85/1 86/86/1 73/87/1 72/88/1
f 86/89/1 87/90/1 74/91/1 73/92/1
f 87/85/1 88/86/1 75/87/1 74/88/1
f 88/89/1 89/90/1 76/91/1 75/92/1
f 89/85/1 90/86/1 77/87/1 76/88/1
f 90/93/1 91/94/1 78/95/1 77/96/1
f 92/97/1 93/98/1 80/99/1 79/100/1
f 93/101/1 94/102/1 81/103/1 80/104/1
f 94/101/1 95/102/1 82/103/1 81/104/1
f 95/105/1 96/106/1 83/107/1 82/108/1
f 96/101/1 97/102/1 84/103/1 83/104/1
f 98/105/1 99/106/1 87/107/1 86/108/1
f 99/101/1 100/102/1 88/103/1 87/104/1
f 100/105/1 101/106/1 89/107/1 88/108/1
f 101/101/1 102/102/1 90/103/1 89/104/1
f 102/109/1 103/110/1 91/111/1 90/112/1
f 104/113/1 105/114/1 93/115/1 92/116/1
f 105/117/1 106/118/1 94/119/1 93/120/1
f 106/117/1 107/118/1 95/119/1 94/120/1
f 107/121/1 108/122/1 96/123/1 95/124/1
f 108/117/1 109/118/1 97/119/1 96/120/1
f 110/121/1 111/122/1 99/123/1 98/124/1
f 111/117/1 112/118/1 100/119/1 99/120/1
f 112/121/1 113/122/1 101/123/1 100/124/1
f 113/117/1 114/118/1 102/119/1 101/120/1
f 114/125/1 115/126/1 103/127/1 102/128/1

g mesh_0002
f 97/129/1 116/130/1 85/131/1 84/132/1
f 116/133/1 98/134/1 86/135/1 85/136/1
f 109/137/1 117/138/1 116/139/1 97/140/1
f 117/141/1 110/142/1 98/143/1 116/144/1

g mesh_0003
f 80/145/1 81/146/1 68/147/1 67/148/1
f 81/149/1 82/150/1 69/151/1 68/152/1
f 88/145/1 89/146/1 76/147/1 75/148/1
f 89/149/1 90/150/1 77/151/1 76/152/1
f 93/153/1 94/154/1 81/155/1 80/156/1
f 94/157/1 95/158/1 82/159/1 81/160/1
f 100/153/1 101/154/1 89/155/1 88/156/1
f 101/157/1 102/158/1 90/159/1 89/160/1

